<svg version="1.1" xmlns="http://www.w3.org/2000/svg" style="display: block;" viewBox="0 0 2048 2048" width="1024" height="1024" preserveAspectRatio="none">
<defs>
	<linearGradient id="Gradient1" gradientUnits="userSpaceOnUse" x1="704.508" y1="1283.03" x2="641.139" y2="1209.39">
		<stop class="stop0" offset="0" stop-opacity="1" stop-color="rgb(103,77,29)"/>
		<stop class="stop1" offset="1" stop-opacity="1" stop-color="rgb(194,145,37)"/>
	</linearGradient>
	<linearGradient id="Gradient2" gradientUnits="userSpaceOnUse" x1="816.867" y1="1190.47" x2="803.447" y2="1191.63">
		<stop class="stop0" offset="0" stop-opacity="1" stop-color="rgb(50,39,22)"/>
		<stop class="stop1" offset="1" stop-opacity="1" stop-color="rgb(82,62,29)"/>
	</linearGradient>
	<linearGradient id="Gradient3" gradientUnits="userSpaceOnUse" x1="615.627" y1="1807.06" x2="622.234" y2="1815.59">
		<stop class="stop0" offset="0" stop-opacity="1" stop-color="rgb(82,58,24)"/>
		<stop class="stop1" offset="1" stop-opacity="1" stop-color="rgb(57,48,31)"/>
	</linearGradient>
	<linearGradient id="Gradient4" gradientUnits="userSpaceOnUse" x1="857.385" y1="808.191" x2="1227.46" y2="627.443">
		<stop class="stop0" offset="0" stop-opacity="1" stop-color="rgb(248,210,62)"/>
		<stop class="stop1" offset="1" stop-opacity="1" stop-color="rgb(249,231,148)"/>
	</linearGradient>
</defs>
<path transform="translate(0,0)" fill="rgb(255,255,255)" d="M 0 0 L 539.664 0 L 560.215 0 L 2048 0 L 2048 2048 L 895.27 2048 L 808.853 2048 L 749.95 2048 L 712.859 2048 L 651.716 2048 L 568.107 2048 L 0 2048 L 0 1593.83 L 0 1158.89 L 0 972.626 L 0 872.099 L 0 0 z"/>
<path transform="translate(0,0)" fill="rgb(243,191,18)" d="M 0 0 L 539.664 0 L 560.215 0 L 639.059 245.426 C 652.083 286.401 665.695 335.149 680.346 375.123 C 703.56 355.204 728.459 336.51 752.686 317.764 L 884.407 216.3 L 1012.5 117.352 C 1032.92 101.399 1053.71 85.9214 1074.85 70.9312 C 1084.18 64.2088 1099.38 52.7677 1109.03 47.8221 C 1092.54 148.786 1074.71 249.529 1055.57 350.024 L 1031.3 475.944 C 1026.66 500.3 1020.55 528.868 1017.61 553.271 C 1045.16 576.964 1078.02 600.394 1098.35 630.899 C 1126.23 672.75 1141.49 776.899 1171.81 804.734 C 1193.57 824.721 1226.09 840.747 1251.44 856.304 C 1309.21 891.76 1366.96 928.131 1426.53 960.508 C 1436.03 965.668 1500.57 997.614 1502.9 1002.38 C 1502.34 1005.55 1502.44 1005.43 1500.89 1008.21 C 1496.1 1008.06 1489.24 1007.32 1485.07 1009.28 C 1462.72 993.764 1440.59 991.781 1414.52 995.977 L 1399.4 1001.82 C 1387.59 995.169 1380.45 994.73 1367.23 993.791 C 1341.38 996.633 1325.17 996.174 1299.3 996.102 L 1299.31 968.598 C 1275.85 967.247 1246.07 967.909 1222.14 967.978 L 1222.99 996.307 C 1206.5 998.346 1199.76 996.849 1183.43 994.723 C 1174.21 993.521 1160.1 996.675 1150.53 995.923 C 1140.44 996.718 1100.49 994.311 1095.02 997.196 C 1092.99 1001.35 1094.9 1000.4 1094.56 1005.84 C 1090.66 1006.5 1084.65 1001.48 1080.12 999.814 C 1051.78 989.383 1025.46 993.79 1000.41 1009.15 L 1000.12 996.572 C 982.93 995.495 964.285 997.216 948.151 996.3 C 911.1 994.196 893.34 990.398 865.705 1019.06 C 848.288 1001.23 834.86 994.574 809.487 994.445 C 785.771 994.324 772.023 998.044 753.223 1012.23 C 735.883 1032.29 734.037 1045.06 734.764 1071.17 C 736.314 1072.79 736.187 1072.71 738.249 1073.6 C 738.129 1080.44 733.371 1088.36 732.464 1094.84 C 726.809 1135.23 756.371 1164.47 796.186 1164.08 C 805.515 1163.99 844.895 1159.37 850.408 1163.27 C 849.151 1164.67 847.928 1166.1 846.74 1167.57 C 848.871 1171.82 854.483 1176.17 857.882 1179.87 C 848.906 1184.08 837.985 1186.55 828.402 1190.62 C 817.814 1194.79 810.18 1198.22 799.967 1203.17 L 800.523 1201.29 C 804.225 1198.19 805.34 1196.45 806.888 1192.04 C 803.867 1181.59 792.701 1188.37 785.779 1184.34 C 751.26 1185.39 716.668 1185.17 682.139 1186.01 C 676.453 1186.15 670.716 1186 665.058 1186.62 C 624.848 1226.63 583.92 1265.69 543.224 1305.19 C 539.758 1308.56 540.252 1311.04 540.864 1315.51 C 540.867 1339.18 541.253 1362.85 542.022 1386.5 L 476.522 1451.17 C 473.59 1456.36 467.369 1459.7 464.548 1464.07 C 461.472 1472.02 466.25 1473.42 470.287 1481.08 C 471.397 1489.62 472.531 1493.76 469.451 1501.93 C 472.47 1504.25 473.971 1505.59 476.672 1508.27 C 479.205 1511.34 482.109 1515.28 485.249 1517.56 C 493.607 1525.88 522.447 1554.11 527.825 1562.51 L 530.974 1700.2 C 545.101 1714.44 573.288 1740.42 588.395 1752.86 C 590.629 1761.41 586.227 1761.63 585.423 1769.42 C 589.42 1764.3 593.619 1761.51 599.255 1758.46 C 604.426 1758.69 609.056 1759.42 614.164 1760.13 C 614.025 1757.01 613.706 1755.32 614.756 1752.34 L 615.767 1752.71 C 618.685 1751.39 626.71 1742.79 629.408 1740.08 C 652.885 1718.05 675.954 1691.07 699.047 1668.08 C 703.982 1664.05 709.467 1657.98 713.983 1653.26 C 718.842 1659.02 720.789 1660.58 727.094 1664.65 C 733.82 1665.09 738.253 1665.09 745.005 1664.88 C 747.839 1667.81 756.169 1675.97 758.33 1678.71 L 818.577 1738.93 C 823.029 1743.39 841.541 1761.5 844.108 1765.21 C 869.088 1792.82 900.617 1821.01 926.869 1848.52 C 927.781 1894.6 927.144 1943.43 926.876 1989.66 C 903.345 2001.25 879.975 2013.31 856.52 2025.09 C 844.568 2031.09 818.55 2041.45 808.853 2048 L 749.95 2048 L 712.859 2048 L 651.716 2048 L 568.107 2048 L 0 2048 L 0 1593.83 L 0 1158.89 L 0 972.626 L 0 872.099 L 0 0 z"/>
<path transform="translate(0,0)" fill="rgb(6,13,22)" d="M 0 0 L 539.664 0 L 560.215 0 L 639.059 245.426 C 652.083 286.401 665.695 335.149 680.346 375.123 C 703.56 355.204 728.459 336.51 752.686 317.764 L 884.407 216.3 L 1012.5 117.352 C 1032.92 101.399 1053.71 85.9214 1074.85 70.9312 C 1084.18 64.2088 1099.38 52.7677 1109.03 47.8221 C 1092.54 148.786 1074.71 249.529 1055.57 350.024 L 1031.3 475.944 C 1026.66 500.3 1020.55 528.868 1017.61 553.271 C 1045.16 576.964 1078.02 600.394 1098.35 630.899 C 1126.23 672.75 1141.49 776.899 1171.81 804.734 C 1193.57 824.721 1226.09 840.747 1251.44 856.304 C 1309.21 891.76 1366.96 928.131 1426.53 960.508 C 1436.03 965.668 1500.57 997.614 1502.9 1002.38 C 1502.34 1005.55 1502.44 1005.43 1500.89 1008.21 C 1496.1 1008.06 1489.24 1007.32 1485.07 1009.28 C 1462.72 993.764 1440.59 991.781 1414.52 995.977 L 1399.4 1001.82 C 1387.59 995.169 1380.45 994.73 1367.23 993.791 C 1366.48 990.274 1363.37 990.108 1359.83 988.73 C 1349.93 984.883 1338.67 981.291 1329.08 976.89 C 1284.33 956.344 1244.8 927.567 1203.14 901.647 C 1181.69 888.302 1151.73 873.657 1133.55 857.744 C 1093.22 822.894 1076.03 767.751 1062.94 717.683 C 1050.86 671.449 1043.26 664.877 1009.86 633.158 C 951.794 578.029 888.614 532.961 814.187 502.331 C 794.346 494.165 776.847 485.939 756.135 479.704 C 735.308 464.774 679.877 466.447 680.605 439.249 L 682.16 440.025 L 683.767 438.674 C 682.73 438.157 663.049 434.719 659.231 433.894 C 651.328 403.574 639.861 371.573 630.164 341.573 C 599.101 245.473 571.606 147.497 539.212 51.9144 C 483.559 111.537 432.059 174.906 385.076 241.575 C 262.717 417.307 230.924 538.142 238.175 752.454 C 238.499 762.014 238.649 773.439 241.557 782.678 C 255.457 805.837 255.215 851.292 255.553 877.804 C 241.688 891.262 222.602 911.106 208.311 923.071 C 148.673 926.352 78.6203 925.836 18.0771 926.972 L 11.2053 943.194 C 8.41259 951.314 3.86538 965.328 0 972.626 L 0 872.099 L 0 0 z"/>
<path transform="translate(0,0)" fill="rgb(255,255,255)" d="M 0 0 L 539.664 0 C 466.178 77.053 401.407 149.267 341.556 237.864 C 271.062 342.217 227.293 435.013 207.435 560.075 C 197.148 570.831 183.632 579.23 174.174 590.248 C 110.806 664.072 60.4823 748.08 17.2248 834.957 C 11.4277 846.6 6.1631 860.91 0 872.099 L 0 0 z"/>
<path transform="translate(0,0)" fill="rgb(200,147,30)" d="M 192.987 624.734 C 196.792 666.007 206.449 706.529 221.669 745.082 C 224.783 752.891 234.8 779.771 241.557 782.678 C 255.457 805.837 255.215 851.292 255.553 877.804 C 241.688 891.262 222.602 911.106 208.311 923.071 C 148.673 926.352 78.6203 925.836 18.0771 926.972 C 24.7252 908.884 37.2323 883.443 45.7712 865.462 C 85.6967 779.972 135.077 699.226 192.987 624.734 z"/>
<path transform="translate(0,0)" fill="url(#Gradient4)" d="M 683.767 438.674 C 701.173 440.818 724.458 446.706 741.562 450.919 C 832.199 473.247 916.844 515.165 989.54 573.724 C 1000.66 582.782 1017 598.544 1027.65 608.784 C 1039.41 621.481 1059.59 635.726 1069.29 649.49 C 1085.99 673.178 1090.11 708.497 1099.71 735.678 C 1114.47 777.5 1127.58 820.875 1166.99 846.406 C 1187.2 859.504 1207.55 871.995 1227.95 884.654 C 1289.53 922.767 1351.73 959.879 1414.52 995.977 L 1399.4 1001.82 C 1387.59 995.169 1380.45 994.73 1367.23 993.791 C 1366.48 990.274 1363.37 990.108 1359.83 988.73 C 1349.93 984.883 1338.67 981.291 1329.08 976.89 C 1284.33 956.344 1244.8 927.567 1203.14 901.647 C 1181.69 888.302 1151.73 873.657 1133.55 857.744 C 1093.22 822.894 1076.03 767.751 1062.94 717.683 C 1050.86 671.449 1043.26 664.877 1009.86 633.158 C 951.794 578.029 888.614 532.961 814.187 502.331 C 794.346 494.165 776.847 485.939 756.135 479.704 C 735.308 464.774 679.877 466.447 680.605 439.249 L 682.16 440.025 L 683.767 438.674 z"/>
<path transform="translate(0,0)" fill="rgb(229,175,24)" d="M 1057.85 125.848 C 1058.98 135.281 1043.25 212.123 1040.67 226.171 L 986.795 516.223 C 934.518 476.592 865.931 442.303 803.583 422.234 C 770.013 411.543 743.146 405.195 708.819 398.274 C 727.581 382.453 750.954 365.254 770.613 350.075 L 872.904 270.704 L 984.816 183.362 C 1008.83 164.406 1033.44 143.983 1057.85 125.848 z"/>
<path transform="translate(0,0)" fill="rgb(6,13,22)" d="M 0 1158.89 C 11.4765 1150.67 23.4033 1143.1 35.7248 1136.21 C 0.274541 1279.49 0.831971 1418.31 30.9274 1562.49 C 38.2231 1597.45 47.3467 1632.17 56.2481 1666.73 L 98.8439 1588.42 C 104.024 1578.99 113.657 1560.28 119.548 1551.76 C 126.828 1566.71 133.203 1581.72 140.744 1596.61 C 156.155 1627.25 173.819 1656.71 193.591 1684.74 C 196.547 1689 207.147 1704.63 210.412 1707.72 C 219.658 1699.16 228.872 1689.33 238.053 1680.46 L 291.264 1629.78 C 327.684 1595.75 364.526 1559.08 400.81 1524.46 L 409.326 1516.29 L 416.189 1509.76 C 419.049 1507.36 422.528 1503.53 425.198 1500.77 C 424.019 1492.7 423.771 1491.01 425.307 1482.9 C 428.804 1476.29 430.214 1474.86 436.497 1470.77 C 445.315 1467.55 447.998 1467.2 456.797 1469.73 C 460.012 1468.69 461.994 1466.39 464.548 1464.07 C 461.472 1472.02 466.25 1473.42 470.287 1481.08 C 471.397 1489.62 472.531 1493.76 469.451 1501.93 C 472.47 1504.25 473.971 1505.59 476.672 1508.27 C 479.205 1511.34 482.109 1515.28 485.249 1517.56 C 493.607 1525.88 522.447 1554.11 527.825 1562.51 L 530.974 1700.2 C 545.101 1714.44 573.288 1740.42 588.395 1752.86 C 590.629 1761.41 586.227 1761.63 585.423 1769.42 C 589.42 1764.3 593.619 1761.51 599.255 1758.46 C 604.426 1758.69 609.056 1759.42 614.164 1760.13 C 614.025 1757.01 613.706 1755.32 614.756 1752.34 L 615.767 1752.71 C 618.685 1751.39 626.71 1742.79 629.408 1740.08 C 652.885 1718.05 675.954 1691.07 699.047 1668.08 C 703.982 1664.05 709.467 1657.98 713.983 1653.26 C 718.842 1659.02 720.789 1660.58 727.094 1664.65 C 733.82 1665.09 738.253 1665.09 745.005 1664.88 C 747.839 1667.81 756.169 1675.97 758.33 1678.71 L 818.577 1738.93 C 823.029 1743.39 841.541 1761.5 844.108 1765.21 C 869.088 1792.82 900.617 1821.01 926.869 1848.52 C 927.781 1894.6 927.144 1943.43 926.876 1989.66 C 903.345 2001.25 879.975 2013.31 856.52 2025.09 C 844.568 2031.09 818.55 2041.45 808.853 2048 L 749.95 2048 L 712.859 2048 L 651.716 2048 L 568.107 2048 L 0 2048 L 0 1593.83 L 0 1158.89 z"/>
<path transform="translate(0,0)" fill="rgb(255,255,255)" d="M 0 1593.83 C 14.4393 1645.68 25.9681 1704.15 42.8342 1755.28 C 72.7457 1710.71 93.4309 1678.22 117.392 1630.23 C 127.698 1649.15 137.014 1666.43 148.657 1684.64 C 225.098 1804.15 325.831 1889.99 442.673 1967.67 C 469.434 1985.23 496.357 2002.55 523.437 2019.62 C 537.721 2028.63 554.371 2038.49 568.107 2048 L 0 2048 L 0 1593.83 z"/>
<path transform="translate(0,0)" fill="rgb(200,147,30)" d="M 844.108 1765.21 C 869.088 1792.82 900.617 1821.01 926.869 1848.52 C 927.781 1894.6 927.144 1943.43 926.876 1989.66 C 903.345 2001.25 879.975 2013.31 856.52 2025.09 C 844.568 2031.09 818.55 2041.45 808.853 2048 L 749.95 2048 C 749.125 1937.96 786.536 1857.12 844.108 1765.21 z"/>
<path transform="translate(0,0)" fill="rgb(200,147,30)" d="M 220.284 1721 L 294.646 1649.23 C 303.759 1711.4 331.476 1780.44 361.985 1835.26 C 371.938 1853.15 384.825 1871.75 393.778 1888.4 C 376.239 1872.91 355.887 1858.3 337.675 1843.05 C 305.439 1816.25 275.44 1786.86 247.973 1755.19 C 242.152 1748.51 224.574 1728.32 220.284 1721 z"/>
<path transform="translate(0,0)" fill="rgb(255,255,255)" d="M 651.371 1881.6 C 672.541 1897.83 692.054 1916.67 712.445 1933.88 C 715.782 1936.7 719.371 1939.72 722.456 1942.78 C 716.98 1978.55 712.525 2011.51 712.859 2048 L 651.716 2048 C 651.538 1993.42 652.469 1935.86 651.371 1881.6 z"/>
<path transform="translate(0,0)" fill="rgb(248,217,93)" d="M 464.548 1464.07 C 461.472 1472.02 466.25 1473.42 470.287 1481.08 C 471.397 1489.62 472.531 1493.76 469.451 1501.93 C 465.995 1506 463.256 1509.12 458.871 1512.19 C 450.147 1515.67 446.225 1515.83 436.999 1512.8 C 433.869 1515.79 428.321 1520.81 425.565 1523.85 L 413.657 1535.4 C 374.375 1573.67 333.661 1610.72 294.646 1649.23 L 220.284 1721 L 210.412 1707.72 C 219.658 1699.16 228.872 1689.33 238.053 1680.46 L 291.264 1629.78 C 327.684 1595.75 364.526 1559.08 400.81 1524.46 L 409.326 1516.29 L 416.189 1509.76 C 419.049 1507.36 422.528 1503.53 425.198 1500.77 C 424.019 1492.7 423.771 1491.01 425.307 1482.9 C 428.804 1476.29 430.214 1474.86 436.497 1470.77 C 445.315 1467.55 447.998 1467.2 456.797 1469.73 C 460.012 1468.69 461.994 1466.39 464.548 1464.07 z"/>
<path transform="translate(0,0)" fill="rgb(200,147,30)" d="M 458.871 1512.19 C 463.256 1509.12 465.995 1506 469.451 1501.93 C 472.47 1504.25 473.971 1505.59 476.672 1508.27 C 479.205 1511.34 482.109 1515.28 485.249 1517.56 C 493.607 1525.88 522.447 1554.11 527.825 1562.51 L 530.974 1700.2 C 545.101 1714.44 573.288 1740.42 588.395 1752.86 C 590.629 1761.41 586.227 1761.63 585.423 1769.42 L 583.998 1773.43 C 579.915 1769.05 575.602 1765.43 571.116 1761.48 C 556.252 1747.16 524.618 1719.64 513.498 1705.17 C 514.8 1662.51 511.448 1612.52 511.083 1568.62 C 504.472 1560.35 489.171 1545.68 481.38 1537.79 C 478.647 1534.21 472.021 1527.37 468.636 1523.5 C 467.438 1521.72 460.815 1514.49 458.871 1512.19 z"/>
<path transform="translate(0,0)" fill="rgb(123,97,36)" d="M 627.047 1789 C 630.16 1792.29 638.144 1799.55 641.886 1801.75 C 669.291 1825.35 696.359 1849.35 723.083 1873.72 C 728.455 1878.61 749.942 1895.39 751.123 1900.71 C 749.257 1902.3 743.221 1902.69 740.161 1904.52 C 736.87 1906.5 727.612 1898.18 725.358 1896.41 C 697.216 1874.34 670.148 1845.69 641.283 1824.85 C 636.362 1820.22 620.929 1805.27 615.183 1803.99 L 615.414 1801.4 C 620.533 1798.03 623.675 1793.94 627.047 1789 z"/>
<path transform="translate(0,0)" fill="rgb(161,123,40)" d="M 699.047 1668.08 C 703.982 1664.05 709.467 1657.98 713.983 1653.26 C 718.842 1659.02 720.789 1660.58 727.094 1664.65 C 723.165 1667.85 715.201 1675.79 711.911 1679.68 C 689.776 1701.87 664.227 1731.38 642.39 1752.06 C 636.642 1757.87 630.991 1763.78 625.439 1769.78 C 622.148 1765.31 618.901 1762.81 614.164 1760.13 C 614.025 1757.01 613.706 1755.32 614.756 1752.34 L 615.767 1752.71 C 618.685 1751.39 626.71 1742.79 629.408 1740.08 C 652.885 1718.05 675.954 1691.07 699.047 1668.08 z"/>
<path transform="translate(0,0)" fill="rgb(243,191,18)" d="M 594.135 1801.97 C 603.728 1804.13 606.132 1803.52 615.414 1801.4 L 615.183 1803.99 C 615.038 1819.84 615.042 1835.7 615.195 1851.55 C 614.441 1884.32 615.587 1917.38 614.845 1950.02 C 614.529 1946.89 614.641 1947.81 613.394 1944.78 C 613.269 1946.69 612.609 1962 612.436 1962.29 C 610.685 1955.26 610.938 1945.48 607.937 1939.7 C 606.303 1931 604.733 1909.12 603.757 1899.5 L 596.071 1824.51 C 595.587 1816.99 594.941 1809.47 594.135 1801.97 z"/>
<path transform="translate(0,0)" fill="rgb(248,217,93)" d="M 599.255 1758.46 C 604.426 1758.69 609.056 1759.42 614.164 1760.13 C 618.901 1762.81 622.148 1765.31 625.439 1769.78 C 627.975 1777.32 628.785 1781.12 627.047 1789 C 623.675 1793.94 620.533 1798.03 615.414 1801.4 C 606.132 1803.52 603.728 1804.13 594.135 1801.97 L 591.172 1798.79 C 582.853 1789.94 580.656 1785.46 583.998 1773.43 L 585.423 1769.42 C 589.42 1764.3 593.619 1761.51 599.255 1758.46 z"/>
<path transform="translate(0,0)" fill="rgb(58,50,28)" d="M 458.871 1512.19 C 460.815 1514.49 467.438 1521.72 468.636 1523.5 C 472.021 1527.37 478.647 1534.21 481.38 1537.79 C 478.394 1539.66 474.419 1541.8 470.932 1541.81 C 460.207 1541.83 421.252 1541.51 413.657 1535.4 L 425.565 1523.85 C 428.321 1520.81 433.869 1515.79 436.999 1512.8 C 446.225 1515.83 450.147 1515.67 458.871 1512.19 z"/>
<path transform="translate(0,0)" fill="rgb(123,97,36)" d="M 458.871 1512.19 C 460.815 1514.49 467.438 1521.72 468.636 1523.5 C 453.584 1529.77 440.605 1531.84 425.565 1523.85 C 428.321 1520.81 433.869 1515.79 436.999 1512.8 C 446.225 1515.83 450.147 1515.67 458.871 1512.19 z"/>
<path transform="translate(0,0)" fill="rgb(123,97,36)" d="M 571.116 1761.48 C 575.602 1765.43 579.915 1769.05 583.998 1773.43 C 580.656 1785.46 582.853 1789.94 591.172 1798.79 L 594.135 1801.97 C 594.941 1809.47 595.587 1816.99 596.071 1824.51 C 594.419 1819.94 595.548 1820.13 591.313 1818.28 C 569.792 1808.87 553.268 1782.63 571.116 1761.48 z"/>
<path transform="translate(0,0)" fill="rgb(99,81,32)" d="M 625.439 1769.78 C 630.991 1763.78 636.642 1757.87 642.39 1752.06 C 649.575 1770.02 658.877 1785.99 641.886 1801.75 C 638.144 1799.55 630.16 1792.29 627.047 1789 C 628.785 1781.12 627.975 1777.32 625.439 1769.78 z"/>
<path transform="translate(0,0)" fill="rgb(123,97,36)" d="M 727.094 1664.65 C 733.82 1665.09 738.253 1665.09 745.005 1664.88 C 747.839 1667.81 756.169 1675.97 758.33 1678.71 C 743.182 1686.84 727.544 1683.92 711.911 1679.68 C 715.201 1675.79 723.165 1667.85 727.094 1664.65 z"/>
<path transform="translate(0,0)" fill="url(#Gradient3)" d="M 615.183 1803.99 C 620.929 1805.27 636.362 1820.22 641.283 1824.85 C 636.993 1825.2 629.866 1816.97 626.682 1813.8 C 611.36 1823.87 618.809 1835.47 615.195 1851.55 C 615.042 1835.7 615.038 1819.84 615.183 1803.99 z"/>
<path transform="translate(0,0)" fill="rgb(248,217,93)" d="M 607.937 1939.7 C 610.938 1945.48 610.685 1955.26 612.436 1962.29 C 612.609 1962 613.269 1946.69 613.394 1944.78 C 614.641 1947.81 614.529 1946.89 614.845 1950.02 C 614.926 1965.89 614.198 1988.67 615.02 2003.85 L 613.903 2003.57 C 612.54 1997.93 608.36 1947.43 607.937 1939.7 z"/>
<path transform="translate(0,0)" fill="rgb(42,43,46)" d="M 613.903 2003.57 L 615.02 2003.85 C 615.487 2008.1 616.403 2012.24 615.182 2016.21 L 614.236 2015.67 C 613.187 2010.54 613.536 2008.77 613.903 2003.57 z"/>
<path transform="translate(0,0)" fill="rgb(161,123,40)" d="M 431.764 1659.51 C 380.011 1639.17 410.347 1573.7 453.041 1591.19 C 462.038 1594.95 469.179 1602.13 472.903 1611.14 C 481.59 1632.25 469.245 1651.61 448.996 1659.14 C 449.309 1714.29 451.371 1771.86 452.204 1827.44 C 454.918 1840.34 454.137 1914.42 453.465 1929.44 C 447.686 1925.09 444.785 1922.99 438.497 1919.45 C 437.834 1904.21 436.14 1880.18 437.013 1865.63 C 437.44 1855.22 436.225 1837.96 435.818 1827.12 L 434.302 1773.48 C 433.002 1735.34 433.126 1697.34 431.764 1659.51 z"/>
<path transform="translate(0,0)" fill="rgb(58,50,28)" d="M 452.204 1827.44 C 454.918 1840.34 454.137 1914.42 453.465 1929.44 C 447.686 1925.09 444.785 1922.99 438.497 1919.45 C 437.834 1904.21 436.14 1880.18 437.013 1865.63 C 440.61 1873.36 439.582 1882.76 439.49 1891.49 L 451.51 1891.34 C 451.336 1870 452.073 1848.78 452.204 1827.44 z"/>
<path transform="translate(0,0)" fill="rgb(6,13,22)" d="M 436.044 1605.63 C 445.91 1603.44 455.691 1609.64 457.906 1619.51 C 460.121 1629.37 453.934 1639.16 444.076 1641.4 C 434.19 1643.64 424.362 1637.43 422.141 1627.54 C 419.919 1617.65 426.149 1607.83 436.044 1605.63 z"/>
<path transform="translate(0,0)" fill="rgb(200,147,30)" d="M 261.81 896.038 L 262.522 898.499 C 259.121 903.659 247.96 916.83 246.297 920.719 C 230.362 957.991 216.596 1010.12 209.562 1049.44 C 187.282 1075.21 149.848 1104.32 125.112 1129.17 C 116.167 1138.16 106.82 1145.78 98.9373 1156.04 C 99.4297 1195.24 98.9527 1239.73 100.794 1278.37 C 64.4974 1292.12 66.1727 1335.89 98.8925 1348.6 C 107.879 1352.03 117.875 1351.67 126.591 1347.6 C 144.099 1339.41 153.278 1314.13 143.208 1297.15 C 136.904 1286.52 129.669 1281.92 118.654 1277.49 C 117.401 1239.29 116.539 1201.08 116.068 1162.86 C 145.05 1134.53 176.567 1106.21 204.747 1077.91 C 205.493 1085.18 204.609 1097.24 204.317 1105.08 C 203.756 1117.76 203.637 1130.47 203.96 1143.16 C 204.518 1162.57 208.884 1176.1 210.431 1193.27 C 214.738 1189.61 222.061 1181.45 226.507 1177.1 L 261.963 1142.51 C 271.517 1133.12 281.227 1123.85 290.977 1114.65 C 322.874 1084.59 352.857 1052.6 384.743 1022.51 C 383.075 1017.15 381.559 1012.36 381.454 1006.66 C 381.19 996.903 384.931 987.463 391.806 980.534 C 398.693 973.733 408.036 970.002 417.713 970.188 C 463.903 971.385 463.328 1046.4 410.369 1040.07 C 404.619 1037.89 400.458 1036.38 394.997 1033.54 L 388.702 1040.84 L 285.517 1142.62 C 264.296 1163.17 234.438 1189.77 215.892 1211.2 L 217.089 1220 C 219.501 1224.46 221.366 1231.74 222.766 1236.73 C 236.236 1284.7 267.299 1326.52 300.464 1362.87 C 306.888 1369.91 318.943 1381.69 323.738 1389.28 C 294.486 1455.41 282.393 1527.84 288.579 1599.88 C 289.107 1606.21 289.427 1625.82 291.264 1629.78 L 238.053 1680.46 C 228.872 1689.33 219.658 1699.16 210.412 1707.72 C 207.147 1704.63 196.547 1689 193.591 1684.74 C 173.819 1656.71 156.155 1627.25 140.744 1596.61 C 133.203 1581.72 126.828 1566.71 119.548 1551.76 C 113.657 1560.28 104.024 1578.99 98.8439 1588.42 L 56.2481 1666.73 C 47.3467 1632.17 38.2231 1597.45 30.9274 1562.49 C 0.831971 1418.31 0.274541 1279.49 35.7248 1136.21 C 23.4033 1143.1 11.4765 1150.67 0 1158.89 L 0 972.626 C 3.86538 965.328 8.41259 951.314 11.2053 943.194 C 18.5423 946.058 192.632 941.216 214.225 941.019 L 261.81 896.038 z"/>
<path transform="translate(0,0)" fill="rgb(248,217,93)" d="M 384.743 1022.51 C 383.075 1017.15 381.559 1012.36 381.454 1006.66 C 381.19 996.903 384.931 987.463 391.806 980.534 C 398.693 973.733 408.036 970.002 417.713 970.188 C 463.903 971.385 463.328 1046.4 410.369 1040.07 C 404.619 1037.89 400.458 1036.38 394.997 1033.54 L 388.702 1040.84 L 285.517 1142.62 C 264.296 1163.17 234.438 1189.77 215.892 1211.2 L 217.089 1220 C 219.724 1273.4 218.921 1336.05 219.418 1389.82 C 208.275 1403.66 173.643 1435.22 159.709 1448.95 C 137.517 1470.98 115.156 1492.84 92.6263 1514.52 C 85.5269 1521.36 69.6052 1537.64 62.8432 1542.62 C 64.007 1539.72 67.2593 1536.98 69.5979 1534.66 C 56.9561 1521.29 60.8033 1528.25 52.2582 1531.28 C 55.3827 1524.25 96.9171 1487 106.402 1477.22 C 126.667 1456.31 153.194 1433.03 173.89 1411.58 C 181.954 1403.22 196.812 1391.5 202.755 1382.46 C 200.612 1361.97 201.133 1324.66 200.786 1303.23 C 200.268 1271.22 198.727 1234.58 199.673 1202.95 C 202.768 1199.45 206.816 1196.31 210.431 1193.27 C 214.738 1189.61 222.061 1181.45 226.507 1177.1 L 261.963 1142.51 C 271.517 1133.12 281.227 1123.85 290.977 1114.65 C 322.874 1084.59 352.857 1052.6 384.743 1022.51 z"/>
<path transform="translate(0,0)" fill="rgb(243,191,18)" d="M 410.231 987.746 C 419.726 984.372 430.162 989.321 433.556 998.81 C 436.951 1008.3 432.024 1018.74 422.543 1022.16 C 413.033 1025.58 402.549 1020.64 399.143 1011.12 C 395.738 1001.6 400.706 991.131 410.231 987.746 z"/>
<path transform="translate(0,0)" fill="rgb(6,13,22)" d="M 350.975 1177.97 C 354.839 1173.23 358.911 1168.66 363.177 1164.27 C 471.846 1052.15 600.354 1014.45 753.223 1012.23 C 735.883 1032.29 734.037 1045.06 734.764 1071.17 C 736.314 1072.79 736.187 1072.71 738.249 1073.6 C 738.129 1080.44 733.371 1088.36 732.464 1094.84 C 726.809 1135.23 756.371 1164.47 796.186 1164.08 C 805.515 1163.99 844.895 1159.37 850.408 1163.27 C 849.151 1164.67 847.928 1166.1 846.74 1167.57 C 848.871 1171.82 854.483 1176.17 857.882 1179.87 C 848.906 1184.08 837.985 1186.55 828.402 1190.62 C 817.814 1194.79 810.18 1198.22 799.967 1203.17 L 800.523 1201.29 C 804.225 1198.19 805.34 1196.45 806.888 1192.04 C 803.867 1181.59 792.701 1188.37 785.779 1184.34 C 751.26 1185.39 716.668 1185.17 682.139 1186.01 C 676.453 1186.15 670.716 1186 665.058 1186.62 C 624.848 1226.63 583.92 1265.69 543.224 1305.19 C 539.758 1308.56 540.252 1311.04 540.864 1315.51 C 540.867 1339.18 541.253 1362.85 542.022 1386.5 L 476.522 1451.17 C 473.59 1456.36 467.369 1459.7 464.548 1464.07 C 461.994 1466.39 460.012 1468.69 456.797 1469.73 C 447.998 1467.2 445.315 1467.55 436.497 1470.77 C 430.214 1474.86 428.804 1476.29 425.307 1482.9 C 423.771 1491.01 424.019 1492.7 425.198 1500.77 C 422.528 1503.53 419.049 1507.36 416.189 1509.76 L 409.326 1516.29 L 400.81 1524.46 C 364.526 1559.08 327.684 1595.75 291.264 1629.78 C 289.427 1625.82 289.107 1606.21 288.579 1599.88 C 282.393 1527.84 294.486 1455.41 323.738 1389.28 C 354.31 1313.94 410.665 1242.07 473.729 1191.64 C 489.93 1178.69 501.424 1168.34 519.394 1157.68 C 498.566 1160.75 470.752 1160.62 449.284 1163.4 C 417.565 1167.51 382.099 1171.37 350.975 1177.97 z"/>
<path transform="translate(0,0)" fill="rgb(200,147,30)" d="M 652.75 1114.65 C 649.017 1103.06 646.999 1094.05 652.779 1082.16 C 657.058 1073.41 664.669 1066.75 673.907 1063.66 C 683.143 1060.68 693.176 1061.44 701.859 1065.77 C 719.552 1074.73 726.062 1098.45 716.655 1115.48 C 712.012 1123.82 704.141 1129.88 694.893 1132.23 C 683.104 1135.18 674.642 1132.47 664.474 1127.33 C 643.083 1146.37 623.078 1167.36 602.454 1187.21 C 566.673 1221.65 531.015 1256.21 495.138 1290.54 C 489.531 1295.91 483.391 1301.64 478.209 1307.33 C 477.975 1332.88 478.238 1358.44 478.996 1383.98 C 479.458 1406.25 481.356 1429.52 476.522 1451.17 C 473.59 1456.36 467.369 1459.7 464.548 1464.07 C 461.994 1466.39 460.012 1468.69 456.797 1469.73 C 457.142 1467.17 458.47 1463.17 459.244 1460.53 L 460.392 1455.47 C 461.384 1447.62 462.544 1440.62 461.992 1432.68 C 462.415 1389.42 459.616 1342.24 461.44 1299.7 C 478.495 1281.75 499.299 1262.48 517.292 1245.19 L 610.258 1155.67 C 623.195 1143.15 640.791 1127.38 652.75 1114.65 z"/>
<path transform="translate(0,0)" fill="rgb(6,13,22)" d="M 682.905 1079.6 C 692.882 1078.39 701.962 1085.47 703.221 1095.44 C 704.48 1105.41 697.444 1114.52 687.479 1115.83 C 677.448 1117.14 668.262 1110.05 666.995 1100.01 C 665.727 1089.98 672.863 1080.82 682.905 1079.6 z"/>
<path transform="translate(0,0)" fill="rgb(123,97,36)" d="M 359.098 1420.65 C 361.388 1417.11 365.861 1408.16 368.394 1406.19 C 382.584 1420.06 405.234 1438.93 417.262 1451.64 C 422.983 1457.57 427.353 1461.67 433.568 1467.11 L 436.497 1470.77 C 430.214 1474.86 428.804 1476.29 425.307 1482.9 L 423.918 1481.8 C 420.208 1477.67 415.974 1473.66 412.006 1469.74 C 408.782 1466.33 405.719 1463.54 402.284 1460.37 C 387.921 1447.81 373.145 1433.71 359.098 1420.65 z"/>
<path transform="translate(0,0)" fill="rgb(99,77,30)" d="M 461.992 1432.68 C 462.544 1440.62 461.384 1447.62 460.392 1455.47 L 459.244 1460.53 C 458.47 1463.17 457.142 1467.17 456.797 1469.73 C 447.998 1467.2 445.315 1467.55 436.497 1470.77 L 433.568 1467.11 C 427.353 1461.67 422.983 1457.57 417.262 1451.64 C 441.588 1434.82 436.524 1442.86 460.203 1439.34 L 461.992 1432.68 z"/>
<path transform="translate(0,0)" fill="rgb(123,97,36)" d="M 459.244 1460.53 C 458.47 1463.17 457.142 1467.17 456.797 1469.73 C 447.998 1467.2 445.315 1467.55 436.497 1470.77 L 433.568 1467.11 L 436.015 1466.71 C 439.962 1460.44 452.543 1461.01 459.244 1460.53 z"/>
<path transform="translate(0,0)" fill="rgb(99,81,32)" d="M 460.392 1455.47 L 459.244 1460.53 C 452.543 1461.01 439.962 1460.44 436.015 1466.71 C 435.798 1465.75 435.166 1463.32 435.107 1462.47 C 434.483 1453.54 455.528 1455.52 460.392 1455.47 z"/>
<path transform="translate(0,0)" fill="rgb(58,50,28)" d="M 359.098 1420.65 C 350.832 1413.8 333.39 1391.82 327.931 1388.71 C 327.63 1388.53 327.32 1388.38 327.014 1388.21 C 326.86 1385.69 331.951 1374.74 333.32 1370.83 C 344.524 1384.82 357.233 1392.8 368.394 1406.19 C 365.861 1408.16 361.388 1417.11 359.098 1420.65 z"/>
<path transform="translate(0,0)" fill="rgb(99,81,32)" d="M 412.006 1469.74 C 415.974 1473.66 420.208 1477.67 423.918 1481.8 L 425.307 1482.9 C 423.771 1491.01 424.019 1492.7 425.198 1500.77 C 422.528 1503.53 419.049 1507.36 416.189 1509.76 L 409.326 1516.29 C 405.573 1504.07 400.272 1478.74 412.006 1469.74 z"/>
<path transform="translate(0,0)" fill="rgb(123,97,36)" d="M 416.189 1509.76 C 412.708 1503.46 413.814 1488.73 416.911 1482.36 C 422.402 1478.73 416.956 1483.1 423.918 1481.8 L 425.307 1482.9 C 423.771 1491.01 424.019 1492.7 425.198 1500.77 C 422.528 1503.53 419.049 1507.36 416.189 1509.76 z"/>
<path transform="translate(0,0)" fill="rgb(58,50,28)" d="M 402.284 1460.37 C 405.719 1463.54 408.782 1466.33 412.006 1469.74 C 400.272 1478.74 405.573 1504.07 409.326 1516.29 L 400.81 1524.46 C 399.794 1522.36 398.928 1520.14 399.677 1517.83 C 401.975 1510.74 397.269 1502.74 394.119 1495.04 C 398.807 1486.62 392.439 1474.54 399.381 1466.63 C 401.146 1464.62 401.671 1462.86 402.284 1460.37 z"/>
<path transform="translate(0,0)" fill="url(#Gradient2)" d="M 785.779 1184.34 C 791.302 1184.07 822.426 1181.99 825.233 1183.83 L 823.487 1185.74 C 824.255 1188.6 824.369 1188.38 826.718 1190.28 L 828.402 1190.62 C 817.814 1194.79 810.18 1198.22 799.967 1203.17 L 800.523 1201.29 C 804.225 1198.19 805.34 1196.45 806.888 1192.04 C 803.867 1181.59 792.701 1188.37 785.779 1184.34 z"/>
<path transform="translate(0,0)" fill="rgb(248,217,93)" d="M 565.013 898.843 C 567.359 893.837 569.632 888.591 573.02 884.181 C 583.248 870.867 602.169 867.135 617.169 874.723 C 625.735 879.091 632.081 886.846 634.666 896.108 C 646.639 937.502 586.485 965.266 566.26 916.041 C 554.045 914.596 534.965 915.42 522.065 915.584 L 449.955 916.683 C 429.465 917.042 390.393 915.84 371.641 918.111 C 339.472 950.056 306.926 981.62 274.01 1012.8 L 234.306 1050.01 C 225.032 1058.57 213.097 1068.89 204.747 1077.91 C 176.567 1106.21 145.05 1134.53 116.068 1162.86 C 116.539 1201.08 117.401 1239.29 118.654 1277.49 C 129.669 1281.92 136.904 1286.52 143.208 1297.15 C 153.278 1314.13 144.099 1339.41 126.591 1347.6 C 117.875 1351.67 107.879 1352.03 98.8925 1348.6 C 66.1727 1335.89 64.4974 1292.12 100.794 1278.37 C 98.9527 1239.73 99.4297 1195.24 98.9373 1156.04 C 106.82 1145.78 116.167 1138.16 125.112 1129.17 C 149.848 1104.32 187.282 1075.21 209.562 1049.44 C 218.206 1043.61 225.596 1036.07 233.075 1028.82 C 272.625 990.527 313.199 953.356 352.105 914.393 C 356.421 910.071 361.382 905.545 366.039 901.638 C 432.123 899.782 498.758 900.214 565.013 898.843 z"/>
<path transform="translate(0,0)" fill="rgb(200,147,30)" d="M 107.065 1295.83 C 113.644 1294.34 120.516 1296.53 125.023 1301.55 C 129.531 1306.57 130.965 1313.64 128.773 1320.02 C 126.581 1326.4 121.106 1331.09 114.465 1332.28 C 104.516 1334.07 94.964 1327.58 92.9529 1317.67 C 90.9418 1307.77 97.2082 1298.07 107.065 1295.83 z"/>
<path transform="translate(0,0)" fill="rgb(243,191,18)" d="M 596.357 888.817 C 602.659 887.193 609.347 889.114 613.828 893.833 C 618.309 898.553 619.88 905.331 617.932 911.541 C 615.984 917.751 610.823 922.417 604.449 923.732 C 599.4 924.773 594.147 923.59 590.032 920.485 C 585.916 917.379 583.337 912.653 582.953 907.512 C 582.306 898.857 587.952 890.982 596.357 888.817 z"/>
<path transform="translate(0,0)" fill="rgb(248,217,93)" d="M 464.573 802.187 C 489.505 743.84 550.498 786.703 531.694 824.771 C 527.482 833.411 519.912 839.947 510.75 842.855 C 501.528 845.84 491.487 844.929 482.953 840.333 C 473.22 835.044 468.449 827.472 463.747 817.82 C 423.873 820.603 381.538 818.34 341.812 820.42 C 332.741 827.011 315.139 844.594 306.401 853.201 C 292.046 867.34 275.764 881.853 261.81 896.038 L 214.225 941.019 C 192.632 941.216 18.5423 946.058 11.2053 943.194 L 18.0771 926.972 C 78.6203 925.836 148.673 926.352 208.311 923.071 C 222.602 911.106 241.688 891.262 255.553 877.804 C 280.832 855.521 308.906 825.077 333.98 804.18 C 359.597 803.408 385.223 803.003 410.851 802.964 C 427.943 802.911 447.742 803.38 464.573 802.187 z"/>
<path transform="translate(0,0)" fill="rgb(243,191,18)" d="M 495.76 791.821 C 505.48 789.556 515.194 795.603 517.451 805.324 C 519.709 815.045 513.654 824.754 503.931 827.004 C 494.219 829.252 484.523 823.205 482.268 813.495 C 480.012 803.785 486.052 794.083 495.76 791.821 z"/>
<path transform="translate(0,0)" fill="rgb(6,13,22)" d="M 514.439 185.665 C 517.017 188.158 607.335 470.063 615.32 496.262 C 597.172 509.628 579.562 524.885 562.12 539.28 C 527.347 568.057 492.769 597.07 458.39 626.318 C 443.878 639.603 427.436 653.609 412.51 666.465 C 409.733 655.5 406.993 643.13 404.732 632.058 C 380.25 511.233 398.663 385.653 456.798 276.942 C 474.267 243.987 494.063 216.526 514.439 185.665 z"/>
<path transform="translate(0,0)" fill="rgb(6,13,22)" d="M 873.526 705.646 C 873.473 700.515 872.715 685.902 875.578 682.088 L 879.516 679.776 L 879.545 678.059 C 852.115 663.187 815.054 658.727 784.991 666.259 L 784.684 666.087 C 795.854 661.867 799.45 663.606 809.511 662.329 C 847.889 657.46 876.315 675.809 910.217 690.025 C 914.065 691.639 924.05 696.465 926.929 699.902 C 951.421 729.144 966.219 769.825 981.534 804.551 C 984.472 811.211 988.385 823.864 986.56 830.099 C 1000.75 849.319 1034.07 893.604 1049.2 909.207 C 1030.2 900.735 1001.76 878.945 987.273 873.271 C 982.068 875.565 966.995 873.123 960.45 872.597 C 947.864 871.578 935.227 871.346 922.612 871.903 C 884.995 873.478 858.207 888.093 820.949 870.732 C 782.826 852.968 769.608 817.298 744.438 786.271 C 737.74 778.014 730.89 773.95 723.802 766.854 C 720.784 765.863 708.382 764.305 704.715 763.714 C 678.891 759.552 652.846 758.295 626.801 755.457 L 659.158 746.638 C 645.855 723.798 625.447 695.966 610.651 673.01 C 634.823 678.24 664.022 683.361 687.05 688.148 C 703.777 691.624 756.777 714.565 773.661 723.209 C 776.871 723.689 795.845 722.115 800.093 721.769 C 822.585 719.942 861.022 730.461 873.526 705.646 z"/>
<path transform="translate(0,0)" fill="rgb(248,217,93)" d="M 723.802 766.854 C 754.505 772.556 766.508 778.27 789.677 799.786 C 803.913 813.006 822.172 825.586 839.986 833.1 C 871.92 846.94 898.954 840.497 931.023 845.623 C 944.833 847.831 975.22 864.726 987.273 873.271 C 982.068 875.565 966.995 873.123 960.45 872.597 C 947.864 871.578 935.227 871.346 922.612 871.903 C 884.995 873.478 858.207 888.093 820.949 870.732 C 782.826 852.968 769.608 817.298 744.438 786.271 C 737.74 778.014 730.89 773.95 723.802 766.854 z"/>
<path transform="translate(0,0)" fill="rgb(248,217,93)" d="M 873.526 705.646 C 873.473 700.515 872.715 685.902 875.578 682.088 L 879.516 679.776 L 879.545 678.059 C 852.115 663.187 815.054 658.727 784.991 666.259 L 784.684 666.087 C 795.854 661.867 799.45 663.606 809.511 662.329 C 847.889 657.46 876.315 675.809 910.217 690.025 C 914.065 691.639 924.05 696.465 926.929 699.902 C 951.421 729.144 966.219 769.825 981.534 804.551 C 984.472 811.211 988.385 823.864 986.56 830.099 C 979.004 822.139 969.573 809.736 961.932 801.038 C 947.253 784.618 931.333 769.352 914.312 755.375 C 873.515 722.011 824.864 720.241 774.353 725.432 L 773.661 723.209 C 776.871 723.689 795.845 722.115 800.093 721.769 C 822.585 719.942 861.022 730.461 873.526 705.646 z"/>
<path transform="translate(0,0)" fill="rgb(229,175,24)" d="M 610.651 673.01 C 634.823 678.24 664.022 683.361 687.05 688.148 C 703.777 691.624 756.777 714.565 773.661 723.209 L 774.353 725.432 C 735.48 729.62 696.974 736.708 659.158 746.638 C 645.855 723.798 625.447 695.966 610.651 673.01 z"/>
<path transform="translate(0,0)" fill="rgb(243,191,18)" d="M 821.656 760.188 C 852.352 761.738 876.809 762.333 897.647 786.95 C 901.307 791.273 923.043 811.779 923.66 814.529 L 920.748 815.61 C 906.945 818.577 885.275 820.724 871.255 819.98 C 841.403 818.395 829.39 784.779 821.656 760.188 z"/>
<path transform="translate(0,0)" fill="rgb(248,217,93)" d="M 794.538 759.748 L 807.39 759.98 L 810.087 778.411 C 805.423 775.405 798.15 764.694 794.538 759.748 z"/>
<path transform="translate(0,0)" fill="rgb(243,191,18)" d="M 1020.43 1158.9 C 1043.44 1164.77 1052.46 1165.9 1076.17 1161.52 C 1122.96 1167.97 1234.99 1185.63 1277.14 1165.13 C 1302.89 1163.33 1332.39 1160.21 1358.19 1162.58 C 1264.29 1234.83 1151.9 1209.26 1043.31 1204.15 C 1001.25 1202.17 951.952 1197.9 933.201 1245.12 C 912.478 1297.3 926.753 1355.47 960.012 1399.04 C 996.683 1447.09 1047.96 1472.52 1098.4 1503.13 C 1166.55 1543.56 1223.59 1600.29 1264.38 1668.23 C 1273.71 1683.72 1284.25 1702.4 1291.17 1719.21 C 1283.78 1728.7 1272.41 1740.36 1263.87 1749.43 C 1226.56 1789.35 1185.34 1825.43 1140.84 1857.14 C 1135.18 1861.21 1128.85 1865.98 1123.05 1869.7 C 1110.04 1879.39 1095.12 1890.41 1081.16 1898.76 C 1067.39 1908.77 1051.51 1918.2 1036.93 1927.14 C 1006.58 1945.87 975.635 1963.62 944.135 1980.34 C 938.44 1983.57 932.82 1986.91 926.876 1989.66 C 927.144 1943.43 927.781 1894.6 926.869 1848.52 C 900.617 1821.01 869.088 1792.82 844.108 1765.21 C 841.541 1761.5 823.029 1743.39 818.577 1738.93 L 758.33 1678.71 C 756.169 1675.97 747.839 1667.81 745.005 1664.88 C 738.253 1665.09 733.82 1665.09 727.094 1664.65 C 720.789 1660.58 718.842 1659.02 713.983 1653.26 C 709.467 1657.98 703.982 1664.05 699.047 1668.08 C 675.954 1691.07 652.885 1718.05 629.408 1740.08 C 626.71 1742.79 618.685 1751.39 615.767 1752.71 L 614.756 1752.34 C 613.706 1755.32 614.025 1757.01 614.164 1760.13 C 609.056 1759.42 604.426 1758.69 599.255 1758.46 C 593.619 1761.51 589.42 1764.3 585.423 1769.42 C 586.227 1761.63 590.629 1761.41 588.395 1752.86 C 573.288 1740.42 545.101 1714.44 530.974 1700.2 L 527.825 1562.51 C 522.447 1554.11 493.607 1525.88 485.249 1517.56 C 482.109 1515.28 479.205 1511.34 476.672 1508.27 C 473.971 1505.59 472.47 1504.25 469.451 1501.93 C 472.531 1493.76 471.397 1489.62 470.287 1481.08 C 466.25 1473.42 461.472 1472.02 464.548 1464.07 C 467.369 1459.7 473.59 1456.36 476.522 1451.17 L 542.022 1386.5 C 541.253 1362.85 540.867 1339.18 540.864 1315.51 C 540.252 1311.04 539.758 1308.56 543.224 1305.19 C 583.92 1265.69 624.848 1226.63 665.058 1186.62 C 670.716 1186 676.453 1186.15 682.139 1186.01 C 716.668 1185.17 751.26 1185.39 785.779 1184.34 C 792.701 1188.37 803.867 1181.59 806.888 1192.04 C 805.34 1196.45 804.225 1198.19 800.523 1201.29 L 799.967 1203.17 C 810.18 1198.22 817.814 1194.79 828.402 1190.62 C 837.985 1186.55 848.906 1184.08 857.882 1179.87 C 899.601 1221.83 973.414 1219 997.503 1159.87 C 1005.7 1159.01 1012.14 1158.96 1020.43 1158.9 z"/>
<path transform="translate(0,0)" fill="rgb(6,13,22)" d="M 674.257 1373.87 C 713.232 1301.12 790.966 1246.1 869.094 1222.59 C 881.587 1218.95 894.245 1215.89 907.025 1213.43 C 899.84 1225.87 891.997 1238.62 886.366 1251.74 C 865.708 1299.87 869.181 1350.18 882.729 1399.59 C 888.358 1420.13 894.695 1441.25 901.037 1461.58 C 903.588 1469.76 908.463 1495.53 910.641 1500.71 L 914.9 1532.54 C 917.073 1601.28 907.824 1645.18 876.09 1707.02 C 869.281 1720.29 860.773 1737.53 852.597 1749.76 C 825.385 1721.75 797.945 1693.95 770.282 1666.38 C 766.431 1662.68 763.037 1658.95 759.423 1655.04 C 751.677 1643.13 767.473 1632.58 740.118 1618.7 L 727.065 1619.41 C 721.711 1614.84 718.043 1611.86 713.417 1606.54 L 709.794 1602.85 C 700.815 1591.76 687.633 1580.71 677.467 1568.83 C 675.473 1532.36 676.753 1491.65 674.925 1453.35 C 675.484 1442.12 674.955 1426.77 674.877 1415.24 C 673.832 1404.62 670.264 1402.08 659.032 1405.24 L 657.577 1404.3 C 662.601 1394.29 668.107 1383.17 674.257 1373.87 z"/>
<path transform="translate(0,0)" fill="rgb(99,81,32)" d="M 713.417 1606.54 C 748.359 1581.37 796.207 1624.59 770.282 1666.38 C 766.431 1662.68 763.037 1658.95 759.423 1655.04 C 751.677 1643.13 767.473 1632.58 740.118 1618.7 L 727.065 1619.41 C 721.711 1614.84 718.043 1611.86 713.417 1606.54 z"/>
<path transform="translate(0,0)" fill="rgb(123,97,36)" d="M 740.118 1618.7 C 762.347 1616.2 768.766 1638.88 759.423 1655.04 C 751.677 1643.13 767.473 1632.58 740.118 1618.7 z"/>
<path transform="translate(0,0)" fill="rgb(99,77,30)" d="M 657.577 1404.3 C 662.601 1394.29 668.107 1383.17 674.257 1373.87 C 675.561 1383.36 674.999 1404.96 674.877 1415.24 C 673.832 1404.62 670.264 1402.08 659.032 1405.24 L 657.577 1404.3 z"/>
<path transform="translate(0,0)" fill="rgb(161,123,40)" d="M 802.518 1429.66 C 807.003 1428.93 810.844 1428.25 815.271 1427.24 L 816.486 1429.71 C 815.652 1436.2 816.324 1443.86 817.888 1450.2 C 818.661 1469.82 819.034 1489.46 819.005 1509.09 C 829.976 1512.85 837.322 1515.9 843.078 1527.25 C 847.841 1536.82 848.456 1547.93 844.776 1557.97 C 841.441 1567.03 834.466 1574.29 825.539 1577.98 C 784.85 1594.54 747.027 1533.15 802.758 1507.5 C 802.425 1495.86 801.882 1483.66 801.927 1472.07 C 802.974 1461.29 802.471 1441.12 802.518 1429.66 z"/>
<path transform="translate(0,0)" fill="rgb(6,13,22)" d="M 808.96 1525.69 C 819.122 1524.42 828.381 1531.65 829.629 1541.81 C 830.877 1551.97 823.64 1561.22 813.474 1562.45 C 803.33 1563.68 794.107 1556.47 792.861 1546.32 C 791.616 1536.18 798.819 1526.95 808.96 1525.69 z"/>
<path transform="translate(0,0)" fill="rgb(99,77,30)" d="M 800.066 1357.08 C 803.634 1352.06 829.811 1320.25 834.032 1316.05 C 832.057 1320.5 831.196 1321.24 827.76 1324.8 L 826.779 1325.8 C 831.76 1327.42 835.18 1328.66 840.429 1329.44 L 844.6 1326.14 L 845.053 1326.97 C 837.188 1336.63 823.138 1352.6 816.785 1362.22 L 816.028 1363.38 C 814.847 1389.45 818.689 1422.42 817.888 1450.2 C 816.324 1443.86 815.652 1436.2 816.486 1429.71 L 815.271 1427.24 C 810.844 1428.25 807.003 1428.93 802.518 1429.66 C 802.471 1441.12 802.974 1461.29 801.927 1472.07 C 800.746 1464.18 800.674 1440.33 800.654 1431.16 C 800.606 1408.86 797.951 1378.63 800.066 1357.08 z"/>
<path transform="translate(0,0)" fill="rgb(200,147,30)" d="M 910.641 1500.71 C 915.171 1502 931.043 1521.41 933.414 1525.61 C 943.532 1539.31 955.265 1555.47 966.331 1568.15 C 971.788 1570.15 983.706 1584.55 988.396 1589.73 C 1018.22 1622.69 1045.78 1656.56 1064.6 1697.26 C 1084.25 1739.81 1092.88 1786.63 1089.68 1833.39 C 1088.94 1845.84 1087.42 1858.23 1085.14 1870.49 C 1084.22 1875.56 1079.83 1895.07 1081.16 1898.76 C 1067.39 1908.77 1051.51 1918.2 1036.93 1927.14 C 1006.58 1945.87 975.635 1963.62 944.135 1980.34 C 938.44 1983.57 932.82 1986.91 926.876 1989.66 C 927.144 1943.43 927.781 1894.6 926.869 1848.52 C 900.617 1821.01 869.088 1792.82 844.108 1765.21 C 841.541 1761.5 823.029 1743.39 818.577 1738.93 L 758.33 1678.71 C 756.169 1675.97 747.839 1667.81 745.005 1664.88 C 738.253 1665.09 733.82 1665.09 727.094 1664.65 C 720.789 1660.58 718.842 1659.02 713.983 1653.26 C 707.548 1635.21 718.893 1632.57 702.121 1619.24 L 701.369 1618.25 C 700.601 1613.24 689.181 1603.12 684.932 1598.78 C 690.007 1596.75 691.445 1594.93 695.425 1591.24 C 701.175 1595.03 703.047 1601.46 709.794 1602.85 L 713.417 1606.54 C 718.043 1611.86 721.711 1614.84 727.065 1619.41 L 740.118 1618.7 C 767.473 1632.58 751.677 1643.13 759.423 1655.04 C 763.037 1658.95 766.431 1662.68 770.282 1666.38 C 797.945 1693.95 825.385 1721.75 852.597 1749.76 C 860.773 1737.53 869.281 1720.29 876.09 1707.02 C 907.824 1645.18 917.073 1601.28 914.9 1532.54 L 910.641 1500.71 z"/>
<path transform="translate(0,0)" fill="rgb(248,217,93)" d="M 684.932 1598.78 C 690.007 1596.75 691.445 1594.93 695.425 1591.24 C 701.175 1595.03 703.047 1601.46 709.794 1602.85 L 713.417 1606.54 C 718.043 1611.86 721.711 1614.84 727.065 1619.41 L 740.118 1618.7 C 767.473 1632.58 751.677 1643.13 759.423 1655.04 C 763.037 1658.95 766.431 1662.68 770.282 1666.38 C 797.945 1693.95 825.385 1721.75 852.597 1749.76 C 873.011 1770.81 894.133 1791.13 914.598 1812.1 C 923.519 1821.24 936.449 1833.01 944.146 1842.83 C 944.191 1887.79 942.809 1935.76 944.135 1980.34 C 938.44 1983.57 932.82 1986.91 926.876 1989.66 C 927.144 1943.43 927.781 1894.6 926.869 1848.52 C 900.617 1821.01 869.088 1792.82 844.108 1765.21 C 841.541 1761.5 823.029 1743.39 818.577 1738.93 L 758.33 1678.71 C 756.169 1675.97 747.839 1667.81 745.005 1664.88 C 738.253 1665.09 733.82 1665.09 727.094 1664.65 C 720.789 1660.58 718.842 1659.02 713.983 1653.26 C 707.548 1635.21 718.893 1632.57 702.121 1619.24 L 701.369 1618.25 C 700.601 1613.24 689.181 1603.12 684.932 1598.78 z"/>
<path transform="translate(0,0)" fill="rgb(248,217,93)" d="M 933.414 1525.61 C 943.532 1539.31 955.265 1555.47 966.331 1568.15 C 974.33 1579.07 996.485 1608.03 1002.83 1618.95 C 1004.65 1661.72 1004.61 1704.61 1006.83 1747.25 C 1018.17 1751.57 1026.15 1755.4 1031.69 1767.45 C 1035.79 1776.28 1036.2 1786.39 1032.83 1795.53 C 1029.36 1804.67 1022.44 1812.07 1013.56 1816.14 C 975.452 1833.52 934.576 1774.42 989.085 1746.8 C 988.986 1728.24 988.616 1634.48 984.78 1624.29 C 981.175 1614.72 962.218 1590.05 955.683 1580.22 C 953.853 1568.69 938.696 1539.05 932.82 1526.98 L 933.414 1525.61 z"/>
<path transform="translate(0,0)" fill="rgb(200,147,30)" d="M 995.285 1764.58 C 1005.06 1762.48 1014.73 1768.57 1017.05 1778.3 C 1019.37 1788.04 1013.49 1797.84 1003.81 1800.37 C 997.356 1802.06 990.492 1800.12 985.872 1795.31 C 981.252 1790.5 979.599 1783.56 981.553 1777.18 C 983.507 1770.8 988.761 1765.98 995.285 1764.58 z"/>
<path transform="translate(0,0)" fill="rgb(229,175,24)" d="M 910.641 1500.71 C 915.171 1502 931.043 1521.41 933.414 1525.61 L 932.82 1526.98 C 938.696 1539.05 953.853 1568.69 955.683 1580.22 C 943.774 1569.74 927.258 1540.96 914.9 1532.54 L 910.641 1500.71 z"/>
<path transform="translate(0,0)" fill="rgb(6,13,22)" d="M 665.058 1186.62 C 670.716 1186 676.453 1186.15 682.139 1186.01 C 716.668 1185.17 751.26 1185.39 785.779 1184.34 C 792.701 1188.37 803.867 1181.59 806.888 1192.04 C 805.34 1196.45 804.225 1198.19 800.523 1201.29 L 799.967 1203.17 C 617.367 1286.13 553.124 1488.78 579.325 1673.32 C 582.985 1699.1 583.558 1727.25 588.395 1752.86 C 573.288 1740.42 545.101 1714.44 530.974 1700.2 L 527.825 1562.51 C 522.447 1554.11 493.607 1525.88 485.249 1517.56 C 482.109 1515.28 479.205 1511.34 476.672 1508.27 C 473.971 1505.59 472.47 1504.25 469.451 1501.93 C 472.531 1493.76 471.397 1489.62 470.287 1481.08 C 466.25 1473.42 461.472 1472.02 464.548 1464.07 C 467.369 1459.7 473.59 1456.36 476.522 1451.17 L 542.022 1386.5 C 541.253 1362.85 540.867 1339.18 540.864 1315.51 C 540.252 1311.04 539.758 1308.56 543.224 1305.19 C 583.92 1265.69 624.848 1226.63 665.058 1186.62 z"/>
<path transform="translate(0,0)" fill="url(#Gradient1)" d="M 665.058 1186.62 C 670.716 1186 676.453 1186.15 682.139 1186.01 C 716.668 1185.17 751.26 1185.39 785.779 1184.34 C 792.701 1188.37 803.867 1181.59 806.888 1192.04 C 805.34 1196.45 804.225 1198.19 800.523 1201.29 C 787.281 1202.8 774.817 1201.68 761.998 1202.36 C 733.671 1203.87 699.64 1202.6 671.784 1205 C 638.762 1234.02 608.214 1268.39 575.835 1298.37 C 570.206 1303.58 564.086 1309.3 558.709 1314.76 C 558.84 1325.49 559.443 1341.19 558.848 1351.53 C 557.443 1342.49 557.679 1325.16 557.552 1315.5 C 551.183 1314.66 547.011 1309.38 542.127 1310.9 L 540.864 1315.51 C 540.252 1311.04 539.758 1308.56 543.224 1305.19 C 583.92 1265.69 624.848 1226.63 665.058 1186.62 z"/>
<path transform="translate(0,0)" fill="rgb(229,175,24)" d="M 540.864 1315.51 L 542.127 1310.9 C 547.011 1309.38 551.183 1314.66 557.552 1315.5 C 557.679 1325.16 557.443 1342.49 558.848 1351.53 C 558.988 1364.71 558.82 1379.99 559.615 1392.98 C 535.716 1416.94 509.525 1441.73 486.365 1465.9 L 475.846 1476.53 L 470.287 1481.08 C 466.25 1473.42 461.472 1472.02 464.548 1464.07 C 467.369 1459.7 473.59 1456.36 476.522 1451.17 L 542.022 1386.5 C 541.253 1362.85 540.867 1339.18 540.864 1315.51 z"/>
<path transform="translate(0,0)" fill="rgb(99,81,32)" d="M 475.846 1476.53 L 486.365 1465.9 C 493.23 1475.81 498.123 1487.67 496.03 1500.01 C 494.514 1508.94 491.311 1511.48 485.249 1517.56 C 482.109 1515.28 479.205 1511.34 476.672 1508.27 C 473.971 1505.59 472.47 1504.25 469.451 1501.93 C 472.531 1493.76 471.397 1489.62 470.287 1481.08 L 475.846 1476.53 z"/>
<path transform="translate(0,0)" fill="rgb(123,97,36)" d="M 475.846 1476.53 L 479.028 1476.17 C 480.317 1483.12 478.154 1497.41 475.696 1504.08 L 476.672 1508.27 C 473.971 1505.59 472.47 1504.25 469.451 1501.93 C 472.531 1493.76 471.397 1489.62 470.287 1481.08 L 475.846 1476.53 z"/>
<path transform="translate(0,0)" fill="rgb(6,13,22)" d="M 659.032 1405.24 C 670.264 1402.08 673.832 1404.62 674.877 1415.24 C 674.955 1426.77 675.484 1442.12 674.925 1453.35 C 676.753 1491.65 675.473 1532.36 677.467 1568.83 C 687.633 1580.71 700.815 1591.76 709.794 1602.85 C 703.047 1601.46 701.175 1595.03 695.425 1591.24 C 691.445 1594.93 690.007 1596.75 684.932 1598.78 C 689.181 1603.12 700.601 1613.24 701.369 1618.25 L 702.121 1619.24 C 718.893 1632.57 707.548 1635.21 713.983 1653.26 C 709.467 1657.98 703.982 1664.05 699.047 1668.08 C 675.954 1691.07 652.885 1718.05 629.408 1740.08 C 624.481 1735.35 621.247 1734.28 614.934 1731.95 C 615.295 1621.51 603.522 1506.91 657.577 1404.3 L 659.032 1405.24 z"/>
<path transform="translate(0,0)" fill="rgb(229,175,24)" d="M 659.032 1405.24 C 670.264 1402.08 673.832 1404.62 674.877 1415.24 C 674.955 1426.77 675.484 1442.12 674.925 1453.35 C 676.753 1491.65 675.473 1532.36 677.467 1568.83 C 687.633 1580.71 700.815 1591.76 709.794 1602.85 C 703.047 1601.46 701.175 1595.03 695.425 1591.24 C 691.445 1594.93 690.007 1596.75 684.932 1598.78 C 689.181 1603.12 700.601 1613.24 701.369 1618.25 C 693.456 1612.04 669.295 1584.85 660.261 1575.79 C 659.368 1542.27 658.901 1508.74 658.863 1475.21 C 657.274 1464.7 658.021 1416.54 659.032 1405.24 z"/>
<path transform="translate(0,0)" fill="rgb(161,123,40)" d="M 659.032 1405.24 C 670.264 1402.08 673.832 1404.62 674.877 1415.24 C 674.955 1426.77 675.484 1442.12 674.925 1453.35 L 674.609 1452.4 C 670.819 1440.57 673.784 1432.76 672.482 1421.61 C 666.967 1427.35 660.648 1425.04 660.368 1431.9 C 659.781 1446.31 659.842 1460.83 658.863 1475.21 C 657.274 1464.7 658.021 1416.54 659.032 1405.24 z"/>
<path transform="translate(0,0)" fill="rgb(123,97,36)" d="M 702.121 1619.24 C 718.893 1632.57 707.548 1635.21 713.983 1653.26 C 709.467 1657.98 703.982 1664.05 699.047 1668.08 C 690.951 1648.94 688.083 1636.78 702.121 1619.24 z"/>
<path transform="translate(0,0)" fill="rgb(248,217,93)" d="M 1120.93 1738.75 C 1110.79 1734.45 1103.57 1730.48 1097.91 1720.25 C 1088.67 1703.87 1093.96 1680.25 1111.71 1671.81 C 1157.12 1650.24 1189.15 1718.34 1137.88 1737.64 C 1137.96 1765.14 1139 1792.55 1138.95 1820.06 C 1138.93 1831.43 1138.37 1846.34 1140.84 1857.14 C 1135.18 1861.21 1128.85 1865.98 1123.05 1869.7 C 1123.58 1826.89 1121.71 1781.83 1120.93 1738.75 z"/>
<path transform="translate(0,0)" fill="rgb(243,191,18)" d="M 1123.84 1685.68 C 1133.35 1683.13 1143.15 1688.6 1145.96 1698.03 C 1148.78 1707.46 1143.57 1717.41 1134.22 1720.47 C 1127.94 1722.53 1121.05 1721.01 1116.21 1716.52 C 1111.37 1712.03 1109.35 1705.26 1110.94 1698.85 C 1112.53 1692.44 1117.47 1687.4 1123.84 1685.68 z"/>
<path transform="translate(0,0)" fill="rgb(58,50,28)" d="M 614.934 1731.95 C 621.247 1734.28 624.481 1735.35 629.408 1740.08 C 626.71 1742.79 618.685 1751.39 615.767 1752.71 L 614.756 1752.34 C 615.094 1746.2 614.908 1738.24 614.934 1731.95 z"/>
<path transform="translate(0,0)" fill="rgb(6,13,22)" d="M 1376.35 1145.99 C 1390.79 1157.25 1396.51 1161.07 1414.9 1163.87 C 1336.79 1234.92 1267.43 1254.29 1163 1249.25 C 1128.99 1247.28 1094.99 1245.02 1061.02 1242.48 C 1041.31 1241.2 1019.33 1239.31 999.667 1240.97 C 991.879 1241.63 981.19 1244.18 975.423 1249.57 C 964.242 1260.02 961.067 1276.77 960.577 1291.34 C 959.259 1330.55 976.069 1364.3 1002.82 1392.19 C 1039.16 1430.09 1087.08 1452.14 1130.93 1479.39 C 1187.85 1515.53 1237.17 1562.42 1276.13 1617.44 C 1293.71 1642.59 1324.74 1695.15 1334.05 1723.84 C 1233.66 1857.24 1076.99 1951.18 932.115 2029.22 C 920.229 2035.62 906.732 2041.19 895.27 2048 L 808.853 2048 C 818.55 2041.45 844.568 2031.09 856.52 2025.09 C 879.975 2013.31 903.345 2001.25 926.876 1989.66 C 932.82 1986.91 938.44 1983.57 944.135 1980.34 C 975.635 1963.62 1006.58 1945.87 1036.93 1927.14 C 1051.51 1918.2 1067.39 1908.77 1081.16 1898.76 C 1095.12 1890.41 1110.04 1879.39 1123.05 1869.7 C 1128.85 1865.98 1135.18 1861.21 1140.84 1857.14 C 1185.34 1825.43 1226.56 1789.35 1263.87 1749.43 C 1272.41 1740.36 1283.78 1728.7 1291.17 1719.21 C 1284.25 1702.4 1273.71 1683.72 1264.38 1668.23 C 1223.59 1600.29 1166.55 1543.56 1098.4 1503.13 C 1047.96 1472.52 996.683 1447.09 960.012 1399.04 C 926.753 1355.47 912.478 1297.3 933.201 1245.12 C 951.952 1197.9 1001.25 1202.17 1043.31 1204.15 C 1151.9 1209.26 1264.29 1234.83 1358.19 1162.58 C 1361.47 1162.42 1363.18 1162.33 1366.48 1161.73 C 1368.58 1159.23 1367.85 1159.56 1367.88 1155.3 L 1376.35 1145.99 z"/>
<path transform="translate(0,0)" fill="rgb(6,13,22)" d="M 1076.17 1161.52 C 1080.04 1159.96 1089.87 1155.53 1093.36 1155.61 C 1094.27 1157.95 1094.12 1158.35 1094.27 1160.89 C 1094.85 1161.24 1095.38 1161.69 1096.01 1161.94 C 1099.09 1163.14 1229.96 1163.26 1240.04 1161.8 C 1242.99 1157.06 1239.11 1155.38 1241.97 1154.16 C 1257.26 1161.33 1260.37 1163.19 1277.14 1165.13 C 1234.99 1185.63 1122.96 1167.97 1076.17 1161.52 z"/>
<path transform="translate(0,0)" fill="rgb(6,13,22)" d="M 997.503 1159.87 C 998.674 1154.86 999.22 1152.14 999.748 1147.04 C 1006.69 1151.27 1013.12 1155.29 1020.43 1158.9 C 1012.14 1158.96 1005.7 1159.01 997.503 1159.87 z"/>
<path transform="translate(0,0)" fill="rgb(229,175,24)" d="M 1367.88 1155.3 C 1367.1 1150.88 1366.65 1142.45 1367.68 1138.09 L 1369.24 1137.24 C 1372.59 1138.87 1374.31 1142.69 1376.35 1145.99 L 1367.88 1155.3 z"/>
<path transform="translate(0,0)" fill="rgb(6,13,22)" d="M 1485.07 1009.28 C 1489.24 1007.32 1496.1 1008.06 1500.89 1008.21 C 1499.1 1011.7 1496.88 1016.37 1494.85 1019.61 L 1485.07 1009.28 z"/>
<path transform="translate(0,0)" fill="rgb(6,13,22)" d="M 917.931 1019.36 C 923.485 1019.33 927.237 1019.65 932.691 1021.1 C 937.494 1022.38 947.476 1030.67 950.84 1029.85 C 950.79 1026.27 950.145 1024.59 951.621 1021.91 C 956.828 1020.8 969.105 1021.3 975.021 1021.36 L 975.185 1100.57 C 975.195 1140.65 981.113 1179.59 925.025 1182.08 C 907.178 1182.87 891.6 1175.35 879.081 1162.87 L 883.787 1157.1 L 892.499 1146.61 C 905.566 1159.57 924.573 1168.82 941.365 1154.14 C 949.152 1147.33 949.055 1136.35 949.239 1126.71 C 942.189 1132.68 936.476 1136.15 927.075 1137.67 C 915.727 1139.53 904.111 1136.74 894.848 1129.92 C 883.727 1121.68 876.403 1106.86 874.658 1093.19 C 870.381 1059.68 878.48 1024.1 917.931 1019.36 z"/>
<path transform="translate(0,0)" fill="rgb(255,255,255)" d="M 920.14 1041.09 C 933.842 1039.79 941.081 1042.77 948.572 1054.29 C 948.451 1068.34 949.861 1083.29 948.737 1097.18 C 947.809 1108.66 939.906 1113.72 929.619 1116.7 C 898.505 1118.66 896.065 1078.86 904.046 1057.27 C 907.238 1048.63 911.954 1044.81 920.14 1041.09 z"/>
<path transform="translate(0,0)" fill="rgb(6,13,22)" d="M 1578.51 973.419 L 1605.34 973.305 C 1606.1 991.452 1605.28 1015.12 1605.2 1033.71 L 1605.44 1136.45 C 1597.78 1136.28 1589.55 1137.01 1582.04 1135.98 C 1579.91 1133.99 1580.51 1131.26 1579.89 1127.27 C 1575.24 1128 1572.13 1131.17 1567.84 1133.65 C 1556.56 1140.19 1544.24 1138.7 1532.29 1135.42 C 1512.12 1125.7 1505.28 1109.04 1503.04 1087.98 C 1500.03 1058.67 1512.22 1021.37 1546.68 1019.18 C 1560.23 1018.32 1568.81 1023.13 1578.42 1031.66 C 1578.1 1012.25 1578.13 992.832 1578.51 973.419 z"/>
<path transform="translate(0,0)" fill="rgb(255,255,255)" d="M 1550.29 1041.19 C 1563.66 1040.46 1570.57 1042.85 1577.79 1054.3 C 1578.01 1058.53 1578.39 1063.74 1578.23 1067.91 C 1577.38 1090.34 1586.03 1112.11 1556.61 1116.69 C 1545.61 1115.89 1537.15 1111.03 1533.31 1100.37 C 1525.79 1079.53 1526.62 1050.11 1550.29 1041.19 z"/>
<path transform="translate(0,0)" fill="rgb(6,13,22)" d="M 1431.43 1019.35 C 1494.26 1017.37 1479.25 1067.72 1481.32 1109.37 C 1481.82 1119.32 1483.68 1126.6 1486.72 1136.09 C 1479.23 1136.13 1465.99 1137.04 1459.17 1135.69 C 1457.26 1134.01 1457.2 1132.24 1456.56 1129.65 L 1456.27 1128.48 C 1454.82 1127.65 1411.3 1156.72 1388.58 1118.68 C 1384.05 1105.2 1383.35 1092.11 1393.85 1081.01 C 1409.2 1064.8 1434.12 1066.11 1454.63 1065.77 C 1454.66 1052.63 1453.91 1047.38 1442.57 1040.18 C 1428.87 1039.28 1418.26 1038.37 1414.3 1053.98 C 1409.81 1054.14 1392.74 1055.33 1389.43 1053.92 C 1386.07 1031.3 1413.46 1021.27 1431.43 1019.35 z"/>
<path transform="translate(0,0)" fill="rgb(255,255,255)" d="M 1432.34 1083.2 C 1439.19 1082.73 1447.37 1082.88 1454.35 1082.83 C 1454.3 1102.01 1456.44 1110.52 1436.22 1117.38 C 1421.25 1117.98 1405.32 1111.45 1414.44 1092.39 C 1417.44 1086.11 1425.83 1084.44 1432.34 1083.2 z"/>
<path transform="translate(0,0)" fill="rgb(6,13,22)" d="M 802.631 1019.38 C 863.159 1014.11 852.38 1071.37 853.107 1110.32 C 853.285 1119.89 855.053 1126.94 857.802 1136.11 L 830.893 1136.08 L 827.63 1126.43 C 825.892 1127.97 824.573 1129.11 822.655 1130.45 C 812.451 1137.48 799.816 1140.02 787.688 1137.5 C 775.299 1135.04 767.74 1129.21 760.976 1118.96 C 750.812 1095.87 761.719 1077.03 784.958 1069.51 C 798.761 1065.04 812.595 1065.83 826.902 1065.96 C 826.584 1059.4 826.372 1049.04 820.597 1045.12 C 801.705 1032.3 795.547 1039.92 784.954 1053.36 C 779.904 1054.75 766.242 1054.26 760.386 1054.26 C 765.458 1029.89 778.598 1021.94 802.631 1019.38 z"/>
<path transform="translate(0,0)" fill="rgb(255,255,255)" d="M 802.591 1083.3 C 810.477 1082.7 818.295 1082.8 826.199 1082.8 C 826.719 1104.09 828.758 1109.14 808.105 1117.33 C 780.795 1120.03 773.275 1090.46 802.591 1083.3 z"/>
<path transform="translate(0,0)" fill="rgb(6,13,22)" d="M 1045.64 1019.34 C 1090.74 1017.1 1098.99 1050.65 1099.04 1086.77 L 1022.55 1086.3 C 1029.68 1122.98 1056.76 1125.74 1082.72 1103.49 L 1084.89 1103.67 C 1089.88 1108.06 1093.61 1112.05 1098.16 1116.88 C 1089.29 1127.99 1076.61 1135.4 1062.57 1137.68 C 981.998 1150.95 972.181 1027.5 1045.64 1019.34 z"/>
<path transform="translate(0,0)" fill="rgb(255,255,255)" d="M 1047.55 1040.22 C 1066 1040.96 1070.35 1050.73 1072.84 1067.26 L 1049.41 1067.82 C 1040.25 1067.86 1031.85 1067.46 1022.72 1067 C 1026.93 1051.52 1030.72 1043.39 1047.55 1040.22 z"/>
<path transform="translate(0,0)" fill="rgb(6,13,22)" d="M 1674.29 1019.27 C 1675.72 1019.16 1677.15 1019.09 1678.59 1019.06 C 1720.83 1018.37 1730.01 1052.02 1730.01 1086.26 C 1704.39 1086.72 1678.64 1085.88 1653.01 1086.66 C 1659.96 1121.54 1688.13 1125.3 1712.68 1103.31 L 1714.24 1103.66 L 1727.86 1115.74 C 1704.24 1150.99 1641.3 1144.36 1629.81 1101.63 C 1620.19 1065.88 1633.05 1025.61 1674.29 1019.27 z"/>
<path transform="translate(0,0)" fill="rgb(255,255,255)" d="M 1673.22 1041.2 C 1687.9 1039.3 1697.83 1043.82 1703.45 1059.14 C 1704.59 1062.24 1703.37 1064.38 1701.77 1066.97 C 1697.55 1068.27 1689.85 1067.82 1685.14 1067.8 C 1674.54 1067.84 1663.94 1067.69 1653.34 1067.35 C 1657.12 1053.17 1659.21 1047.4 1673.22 1041.2 z"/>
<path transform="translate(0,0)" fill="rgb(6,13,22)" d="M 1173.93 1019.3 C 1217.94 1017.37 1215.59 1056.53 1215.11 1087.99 C 1214.86 1103.9 1215.05 1120.27 1215.02 1136.22 L 1189.08 1136.29 C 1188.99 1118.85 1191.94 1064.31 1186.31 1051.47 C 1184.27 1046.81 1180.74 1043.11 1175.84 1041.51 C 1168.45 1039.09 1160.19 1042.42 1153.68 1045.76 C 1149.9 1048.66 1148.99 1050.1 1145.95 1053.89 C 1144.26 1074.68 1145.56 1114.08 1145.68 1136.36 L 1118.71 1136.09 L 1119 1021.69 L 1143.3 1021.49 C 1143.13 1025.91 1143.54 1029.65 1143.91 1034.04 C 1155.46 1024.34 1158.84 1021.34 1173.93 1019.3 z"/>
<path transform="translate(0,0)" fill="rgb(6,13,22)" d="M 1247.93 993.408 C 1256.46 993.111 1265.58 993.188 1274.16 993.106 C 1274.35 1002.53 1274.27 1012.2 1274.3 1021.65 C 1281.25 1021.5 1288.33 1021.52 1295.29 1021.47 L 1295.33 1041.65 L 1274.65 1041.66 C 1274.67 1055.23 1272.07 1105.91 1278.16 1114.22 C 1284.64 1118.17 1288.57 1116.68 1296.28 1115.69 L 1296.75 1135.61 C 1277.47 1140.87 1252.26 1139.32 1249.15 1116.78 C 1246.17 1095.23 1247.85 1064.03 1247.93 1041.71 L 1228.88 1041.5 L 1228.94 1021.41 L 1247.48 1021.22 C 1247.76 1011.95 1247.91 1002.68 1247.93 993.408 z"/>
<path transform="translate(0,0)" fill="rgb(6,13,22)" d="M 1364.53 1019.3 C 1368.08 1019.28 1373.46 1020.14 1377.13 1020.61 L 1376.93 1044.97 C 1337.97 1043.1 1341.06 1058.29 1341.18 1091.11 L 1341.38 1136.24 L 1315.62 1136.13 C 1314.68 1098.91 1315.34 1058.82 1315.32 1021.4 C 1323.56 1021.26 1332.06 1021.42 1340.33 1021.47 L 1340.8 1034.97 C 1348.01 1025.22 1352.79 1021.54 1364.53 1019.3 z"/>
<path transform="translate(0,0)" fill="rgb(243,191,18)" d="M 1771.07 928.965 C 1775.82 928.714 1782.77 928.983 1787.7 929.042 C 1783.59 945.222 1775.51 966.761 1769.83 982.59 C 1766.57 993.083 1764.38 1000.72 1758.91 1011.98 C 1754.82 1020.38 1734.41 1038.44 1729.52 1019.29 C 1729.08 1017.58 1730.24 1014.96 1731.64 1013.54 C 1744.06 1011.12 1743.84 1009.36 1748.84 998.252 C 1740.24 973.919 1732.99 953.824 1725.38 928.991 C 1730.62 928.858 1736.09 928.987 1741.34 929.03 C 1748 942.592 1750.46 959.251 1757.38 974.395 C 1761.85 961.123 1765.89 940.723 1771.07 928.965 z"/>
<path transform="translate(0,0)" fill="rgb(243,191,18)" d="M 1659.87 929.061 L 1677.54 928.732 C 1681.88 935.459 1686.35 943.464 1690.45 950.433 C 1694.61 944.112 1698.14 936.17 1702.63 929.079 C 1708.33 928.735 1714.24 928.867 1719.96 928.884 C 1715.29 940.375 1707.58 951.97 1700.9 962.534 C 1706.57 971.076 1718.33 988.128 1721.57 997.042 L 1720.65 998.665 C 1713.68 998.793 1710.27 998.425 1703.32 997.591 C 1698.52 987.98 1696.43 983 1689.51 974.71 C 1685.77 982.318 1681.95 989.885 1678.04 997.409 C 1673.07 997.891 1665.37 997.855 1660.15 997.968 C 1665.87 985.822 1672.92 974.388 1679.86 962.917 C 1673.51 951.783 1666.94 939.669 1659.87 929.061 z"/>
<path transform="translate(0,0)" fill="rgb(243,191,18)" d="M 1795.14 929.163 C 1810.11 929.16 1831.16 927.764 1846.03 929.612 C 1847.94 929.849 1847.75 930.474 1848.84 932.353 C 1848.51 944.222 1823.48 972.141 1815.13 985.034 C 1826.61 984.61 1839.17 983.962 1850.54 984.869 C 1850.95 989.031 1850.79 993.947 1850.77 998.19 C 1837.06 998.314 1809.34 999.04 1797.03 997.89 C 1781.44 996.433 1824.84 947.006 1828.91 941.881 C 1817.6 942 1806.29 941.853 1794.99 941.443 L 1795.14 929.163 z"/>
<path transform="translate(0,0)" fill="rgb(243,191,18)" d="M 1635.76 980.5 C 1639 979.187 1642.7 979.734 1645.42 981.929 C 1648.14 984.124 1649.46 987.622 1648.86 991.066 C 1648.26 994.511 1645.84 997.36 1642.54 998.51 C 1637.61 1000.23 1632.21 997.698 1630.37 992.811 C 1628.53 987.924 1630.92 982.462 1635.76 980.5 z"/>
</svg>